inDegrees=yes
name=ik_MT_012005D6_009-001_orientations
DataType=double
version=3
OpenSimVersion=4.1
endheader
time	pelvis_tilt	pelvis_list	pelvis_rotation	pelvis_tx	pelvis_ty	pelvis_tz	hip_flexion_r	hip_adduction_r	hip_rotation_r	knee_angle_r	knee_angle_r_beta	ankle_angle_r	subtalar_angle_r	mtp_angle_r	hip_flexion_l	hip_adduction_l	hip_rotation_l	knee_angle_l	knee_angle_l_beta	ankle_angle_l	subtalar_angle_l	mtp_angle_l	lumbar_extension	lumbar_bending	lumbar_rotation	arm_flex_r	arm_add_r	arm_rot_r	elbow_flex_r	pro_sup_r	wrist_flex_r	wrist_dev_r	arm_flex_l	arm_add_l	arm_rot_l	elbow_flex_l	pro_sup_l	wrist_flex_l	wrist_dev_l
0	0	0	0	0	0.9399999999999999	0	0	-1.62605394503524e-07	0	0	0	0	0	0	0	-1.62605394503524e-07	0	0	0	0	0	0	0	0	0	0	0	0	0	0	0	0	0	0	0	0	0	0	0
0.01	0.01615251541103604	0.0003968760337773546	0.01762040072134548	0	0.9399999999999999	0	0.3188844776515068	-0.01523255419402223	-0.1237431444454968	0.6364341726242472	0.01110787178449907	0.3240634769048171	0	0	0.3394648558322973	-0.015422072066369	-0.09984756931091181	0.6528784629576877	0.01139487879397149	0.300972820278273	0	0	0	0	0	0	-1.017358608384809	0	51.24454345210628	49.74698596407135	0	0	0	-1.017358608384809	0	51.24454345210628	49.74698596407135	0	0
0.02	0.01978346354151947	-0.00638369446831781	0.020379003303211	0	0.9399999999999999	0	0.3162694252205255	0.005857190116357618	-0.1221171007288471	0.6424366463009962	0.01121263471342263	0.3471859153221429	0	0	0.3383217504361203	-0.01666340612167894	-0.1140590110851969	0.6699762573790288	0.01169329160145301	0.3521985573740952	0	0	0	0	0	0	-1.48729266284028	0	52.82279871794236	49.04730192581718	0	0	0	-1.48729266284028	0	52.82279871794236	49.04730192581718	0	0
0.03	0.01555336739195609	-0.0006723303941109898	0.02651025597063631	0	0.9399999999999999	0	0.340065513130087	0.0004169537976364661	-0.1289105922165151	0.6483386674515645	0.01131564441502239	0.331290954150638	0	0	0.3546238510858645	-0.01324835343298894	-0.1182983343309262	0.6614125685233824	0.01154382703480563	0.3294679947110974	0	0	0	0	0	0	-1.929687058860458	0	54.23396906442807	48.47765051347152	0	0	0	-1.929687058860458	0	54.23396906442807	48.47765051347152	0	0
0.04	0.01907983144839912	-0.00809446788208287	0.04194565528923504	0	0.9399999999999999	0	0.3433467496961579	0.0135160554701704	-0.14610970320541	0.6441550915393944	0.0112426272408479	0.3146467182547508	0	0	0.3683141912535141	-0.02494150484743055	-0.1144106671649794	0.6644840709843284	0.01159743486573225	0.3072228025636006	0	0	0	0	0	0	-2.347154349264423	0	55.51468155746514	48.00013229711522	0	0	0	-2.347154349264423	0	55.51468155746514	48.00013229711522	0	0
0.05	0.02503183953059365	-0.006531929909644202	0.04565092693823095	0	0.9399999999999999	0	0.3457962218329065	0.01496842845833867	-0.1487083864726217	0.6389228038760759	0.01115130659371151	0.3059130904322919	0	0	0.3754193948961603	-0.02703278647903844	-0.1217765963811691	0.6713040303839868	0.01171646561210862	0.3002447660026265	0	0	0	0	0	0	-2.694846592028185	0	56.52460354744601	47.66337210889282	0	0	0	-2.694846592028185	0	56.52460354744601	47.66337210889282	0	0
0.06	0.01301878105949682	-0.01348767361354662	0.0537777425839531	0	0.9399999999999999	0	0.655716807293631	0.01839203212239221	-0.2603565438621746	1.202046715327002	0.02097967294523917	0.5960823742188456	0	0	0.7034374430714201	-0.04020335312845955	-0.2268836245748388	1.249226110632706	0.02180310873242365	0.5943411709023334	0	0	0	0	0	0	-3.030018015419601	0	57.47042043443183	47.36687739039645	0	0	0	-3.030018015419601	0	57.47042043443183	47.36687739039645	0	0
0.07000000000000001	0.02918616320207156	-0.001337654373762713	0.05132483426200508	0	0.9399999999999999	0	0.3651778119043845	0.01306238301733044	-0.1549236439981362	0.6474255016574819	0.01129970666529907	0.2921233250661145	0	0	0.4049102375512454	-0.0176174375413633	-0.1292047885910227	0.6731743761169546	0.01174910930329954	0.275960235884722	0	0	0	0	0	0	-3.25058599831771	0	58.10108958091632	47.16514322131883	0	0	0	-3.25058599831771	0	58.10108958091632	47.16514322131883	0	0
0.08	0.03383248702039478	-0.002055504444755548	0.05657461888602413	0	0.9399999999999999	0	0.3644531037408885	0.01698568308165351	-0.1555106154820586	0.6482483585617873	0.01131406822755196	0.2934994798063354	0	0	0.4068481099065928	-0.02018580795617803	-0.1321341645151295	0.6741717027038409	0.01176651593595838	0.2795252491524293	0	0	0	0	0	0	-3.563903760752617	0	58.9532421858939	46.9216133877413	0	0	0	-3.563903760752617	0	58.9532421858939	46.9216133877413	0	0
0.09	0.03527806162145234	-0.006615919657559001	0.04897375635457728	0	0.9399999999999999	0	0.3828152156696923	0.02324629916306975	-0.1456540141849711	0.648589394334306	0.01132002042464949	0.2757964187123986	0	0	0.4164551440277609	-0.02274860654931244	-0.1439646595824536	0.671599211023272	0.01172161748615229	0.2705659746994373	0	0	0	0	0	0	-3.875589553451019	0	59.76587969077524	46.70957949547012	0	0	0	-3.875589553451019	0	59.76587969077524	46.70957949547012	0	0
0.09999999999999999	0.02892055816231663	-0.004111853610275103	0.06145548266201969	0	0.9399999999999999	0	0.4005299795016014	0.02277271220375886	-0.1682463480282247	0.649861694662454	0.01134222625444988	0.2787299246060396	0	0	0.4542131466575512	-0.01597887657211759	-0.1367829509340749	0.6773553428498522	0.01182208093870495	0.2397327924844004	0	0	0	0	0	0	-4.17509655981568	0	60.53268937313669	46.51880702731132	0	0	0	-4.17509655981568	0	60.53268937313669	46.51880702731132	0	0
